<svg width="100%" viewBox="0 0 680 520" role="img" xmlns="http://www.w3.org/2000/svg">
<title>Planche Patrimo — Inventaire</title>
<desc>Saisie des actifs patrimoniaux par enveloppe : 8 sur 15 enveloppes, dont PEA, AV, CTO, PER, Livret A. Étape i de la méthode Patrimo.</desc>
<defs>
<style>
.mono{font-family:ui-monospace,SFMono-Regular,monospace;font-size:10px;letter-spacing:0.1em}
.srf{font-family:Georgia,"Tiempos Headline",serif}
.sans{font-family:-apple-system,system-ui,sans-serif}
</style>
</defs>
<rect width="680" height="520" fill="#ece2cf"/>
<!-- Frame top -->
<line x1="32" y1="34" x2="648" y2="34" stroke="#c87a4d" stroke-width="0.5" opacity="0.7"/>
<text x="32" y="24" fill="#a3623a" class="mono" opacity="0.9">PATRIMO · PTM-04 · 2026</text>
<text x="648" y="24" fill="#a3623a" class="mono" text-anchor="end" opacity="0.9">FIG. 04 — PLANCHE 004 / 008</text>
<!-- Section label -->
<text x="32" y="74" fill="#8a7f6c" class="mono">V. — MÉTHODE · ÉTAPE i · INVENTAIRE</text>
<!-- Subtitle -->
<text x="32" y="88" fill="#8a7f6c" class="srf" font-style="italic" font-size="11">Saisissez vos actifs · 15 enveloppes possibles</text>
<!-- Main card -->
<rect x="32" y="96" width="616" height="376" fill="#f3ead9" stroke="#d4c7b0" stroke-width="0.5" rx="4"/>
<!-- Column headers -->
<text x="64" y="116" fill="#8a7f6c" class="mono">ENVELOPPE</text>
<text x="460" y="116" fill="#8a7f6c" class="mono" text-anchor="end">VALEUR</text>
<text x="636" y="116" fill="#8a7f6c" class="mono" text-anchor="end">STATUT</text>
<line x1="44" y1="120" x2="644" y2="120" stroke="#e0d3b9" stroke-width="1"/>
<!-- Row 1: PEA Boursorama — filled -->
<rect x="46" y="130" width="10" height="10" fill="#4a9bd1" rx="1"/>
<text x="64" y="141" fill="#8a7f6c" class="mono">ENV-01</text>
<text x="110" y="141" fill="#1a1612" class="sans" font-size="11">PEA Boursorama</text>
<rect x="430" y="128" width="120" height="16" fill="#ece2cf" stroke="#d4c7b0" stroke-width="0.5" rx="2"/>
<text x="490" y="140" fill="#1a1612" class="sans" font-size="10" text-anchor="middle">98 500 €</text>
<text x="636" y="141" fill="#5ba87a" class="mono" text-anchor="end">✓ OK</text>
<line x1="44" y1="150" x2="644" y2="150" stroke="#e0d3b9" stroke-width="0.5"/>
<!-- Row 2: AV Linxea Spirit 2 — filled -->
<rect x="46" y="160" width="10" height="10" fill="#d966a5" rx="1"/>
<text x="64" y="171" fill="#8a7f6c" class="mono">ENV-02</text>
<text x="110" y="171" fill="#1a1612" class="sans" font-size="11">AV Linxea Spirit 2</text>
<rect x="430" y="158" width="120" height="16" fill="#ece2cf" stroke="#d4c7b0" stroke-width="0.5" rx="2"/>
<text x="490" y="170" fill="#1a1612" class="sans" font-size="10" text-anchor="middle">76 200 €</text>
<text x="636" y="171" fill="#5ba87a" class="mono" text-anchor="end">✓ OK</text>
<line x1="44" y1="180" x2="644" y2="180" stroke="#e0d3b9" stroke-width="0.5"/>
<!-- Row 3: CTO Degiro — filled -->
<rect x="46" y="190" width="10" height="10" fill="#4ecdc4" rx="1"/>
<text x="64" y="201" fill="#8a7f6c" class="mono">ENV-03</text>
<text x="110" y="201" fill="#1a1612" class="sans" font-size="11">CTO Degiro</text>
<rect x="430" y="188" width="120" height="16" fill="#ece2cf" stroke="#d4c7b0" stroke-width="0.5" rx="2"/>
<text x="490" y="200" fill="#1a1612" class="sans" font-size="10" text-anchor="middle">68 400 €</text>
<text x="636" y="201" fill="#5ba87a" class="mono" text-anchor="end">✓ OK</text>
<line x1="44" y1="210" x2="644" y2="210" stroke="#e0d3b9" stroke-width="0.5"/>
<!-- Row 4: PER Individuel Linxea — filled -->
<rect x="46" y="220" width="10" height="10" fill="#9bcc4a" rx="1"/>
<text x="64" y="231" fill="#8a7f6c" class="mono">ENV-04</text>
<text x="110" y="231" fill="#1a1612" class="sans" font-size="11">PER Individuel Linxea</text>
<rect x="430" y="218" width="120" height="16" fill="#ece2cf" stroke="#d4c7b0" stroke-width="0.5" rx="2"/>
<text x="490" y="230" fill="#1a1612" class="sans" font-size="10" text-anchor="middle">57 800 €</text>
<text x="636" y="231" fill="#5ba87a" class="mono" text-anchor="end">✓ OK</text>
<line x1="44" y1="240" x2="644" y2="240" stroke="#e0d3b9" stroke-width="0.5"/>
<!-- Row 5: Livret A — filled -->
<rect x="46" y="250" width="10" height="10" fill="#e89a7a" rx="1"/>
<text x="64" y="261" fill="#8a7f6c" class="mono">ENV-05</text>
<text x="110" y="261" fill="#1a1612" class="sans" font-size="11">Livret A</text>
<rect x="430" y="248" width="120" height="16" fill="#ece2cf" stroke="#d4c7b0" stroke-width="0.5" rx="2"/>
<text x="490" y="260" fill="#1a1612" class="sans" font-size="10" text-anchor="middle">22 950 €</text>
<text x="636" y="261" fill="#5ba87a" class="mono" text-anchor="end">✓ OK</text>
<line x1="44" y1="270" x2="644" y2="270" stroke="#e0d3b9" stroke-width="0.5"/>
<!-- Row 6: LDDS — pending -->
<rect x="46" y="280" width="10" height="10" fill="#b594d4" rx="1" opacity="0.5"/>
<text x="64" y="291" fill="#8a7f6c" class="mono">ENV-06</text>
<text x="110" y="291" fill="#8a7f6c" class="sans" font-size="11">LDDS</text>
<rect x="430" y="278" width="120" height="16" fill="#ece2cf" stroke="#d4c7b0" stroke-width="0.5" rx="2"/>
<text x="490" y="290" fill="#8a7f6c" class="sans" font-size="10" text-anchor="middle">____ €</text>
<text x="636" y="291" fill="#8a7f6c" class="mono" text-anchor="end">···</text>
<line x1="44" y1="300" x2="644" y2="300" stroke="#e0d3b9" stroke-width="0.5"/>
<!-- Row 7: SCPI — pending -->
<rect x="46" y="310" width="10" height="10" fill="#88aacc" rx="1" opacity="0.5"/>
<text x="64" y="321" fill="#8a7f6c" class="mono">ENV-07</text>
<text x="110" y="321" fill="#8a7f6c" class="sans" font-size="11">SCPI</text>
<rect x="430" y="308" width="120" height="16" fill="#ece2cf" stroke="#d4c7b0" stroke-width="0.5" rx="2"/>
<text x="490" y="320" fill="#8a7f6c" class="sans" font-size="10" text-anchor="middle">____ €</text>
<text x="636" y="321" fill="#8a7f6c" class="mono" text-anchor="end">···</text>
<line x1="44" y1="330" x2="644" y2="330" stroke="#e0d3b9" stroke-width="0.5"/>
<!-- Row 8: Crypto — pending -->
<rect x="46" y="340" width="10" height="10" fill="#c87a4d" rx="1" opacity="0.5"/>
<text x="64" y="351" fill="#8a7f6c" class="mono">ENV-08</text>
<text x="110" y="351" fill="#8a7f6c" class="sans" font-size="11">Crypto</text>
<rect x="430" y="338" width="120" height="16" fill="#ece2cf" stroke="#d4c7b0" stroke-width="0.5" rx="2"/>
<text x="490" y="350" fill="#8a7f6c" class="sans" font-size="10" text-anchor="middle">____ €</text>
<text x="636" y="351" fill="#8a7f6c" class="mono" text-anchor="end">···</text>
<!-- Progress bar (8 segments: 5 filled, 3 empty) -->
<line x1="44" y1="370" x2="644" y2="370" stroke="#e0d3b9" stroke-width="0.5"/>
<text x="44" y="388" fill="#8a7f6c" class="mono">5 / 8 ENVELOPPES SAISIES</text>
<text x="636" y="388" fill="#8a7f6c" class="mono" text-anchor="end">~ 2 MIN</text>
<!-- 8 progress segments (each w=68, gap=5) -->
<rect x="44" y="396" width="68" height="8" fill="#c87a4d" rx="2"/>
<rect x="117" y="396" width="68" height="8" fill="#c87a4d" rx="2"/>
<rect x="190" y="396" width="68" height="8" fill="#c87a4d" rx="2"/>
<rect x="263" y="396" width="68" height="8" fill="#c87a4d" rx="2"/>
<rect x="336" y="396" width="68" height="8" fill="#c87a4d" rx="2"/>
<rect x="409" y="396" width="68" height="8" fill="#e0d3b9" rx="2"/>
<rect x="482" y="396" width="68" height="8" fill="#e0d3b9" rx="2"/>
<rect x="555" y="396" width="68" height="8" fill="#e0d3b9" rx="2"/>
<!-- Frame bottom -->
<line x1="32" y1="494" x2="648" y2="494" stroke="#c87a4d" stroke-width="0.5" opacity="0.7"/>
<text x="32" y="508" fill="#a3623a" class="mono" opacity="0.9">MÉTHODE PATRIMO · ÉTAPE i</text>
<text x="648" y="508" fill="#a3623a" class="mono" text-anchor="end" opacity="0.9">SAISIE GUIDÉE · SANS DONNÉE BANCAIRE</text>
</svg>
