<svg width="100%" viewBox="0 0 680 560" role="img" xmlns="http://www.w3.org/2000/svg">
<title>Planche Patrimo — Plateforme · 24 simulateurs</title>
<desc>Catalogue des 24 simulateurs Patrimo répartis en 5 catégories : Placements, Immobilier, Fiscalité, Budget, Outils avancés.</desc>
<defs>
<style>
.mono{font-family:ui-monospace,SFMono-Regular,monospace;font-size:10px;letter-spacing:0.1em}
.srf{font-family:Georgia,"Tiempos Headline",serif}
.sans{font-family:-apple-system,system-ui,sans-serif}
</style>
</defs>
<rect width="680" height="560" fill="#ece2cf"/>
<!-- Frame top -->
<line x1="32" y1="34" x2="648" y2="34" stroke="#c87a4d" stroke-width="0.5" opacity="0.7"/>
<text x="32" y="24" fill="#a3623a" class="mono" opacity="0.9">PATRIMO · PTM-03 · 2026</text>
<text x="648" y="24" fill="#a3623a" class="mono" text-anchor="end" opacity="0.9">FIG. 03 — PLANCHE 003 / 008</text>
<!-- Section label -->
<text x="32" y="74" fill="#8a7f6c" class="mono">III. — PLATEFORME · 24 SIMULATEURS · 5 CATÉGORIES</text>
<!-- Subtitle -->
<text x="32" y="88" fill="#8a7f6c" class="srf" font-style="italic" font-size="11">17 sim. sauvegardées · 24 modules</text>
<!-- Filter tabs -->
<rect x="32" y="96" width="58" height="16" rx="3" fill="#c87a4d"/>
<text x="61" y="108" fill="#f3ead9" class="mono" font-size="8.5" text-anchor="middle" font-weight="700">TOUS 24</text>
<rect x="98" y="96" width="74" height="16" rx="3" fill="none" stroke="#d4c7b0" stroke-width="0.5"/>
<text x="135" y="108" fill="#8a7f6c" class="mono" font-size="8.5" text-anchor="middle">PLACEMENTS 6</text>
<rect x="180" y="96" width="70" height="16" rx="3" fill="none" stroke="#d4c7b0" stroke-width="0.5"/>
<text x="215" y="108" fill="#8a7f6c" class="mono" font-size="8.5" text-anchor="middle">IMMOBILIER 3</text>
<rect x="258" y="96" width="68" height="16" rx="3" fill="none" stroke="#d4c7b0" stroke-width="0.5"/>
<text x="292" y="108" fill="#8a7f6c" class="mono" font-size="8.5" text-anchor="middle">FISCALITÉ 5</text>
<rect x="334" y="96" width="56" height="16" rx="3" fill="none" stroke="#d4c7b0" stroke-width="0.5"/>
<text x="362" y="108" fill="#8a7f6c" class="mono" font-size="8.5" text-anchor="middle">BUDGET 4</text>
<rect x="398" y="96" width="62" height="16" rx="3" fill="none" stroke="#d4c7b0" stroke-width="0.5"/>
<text x="429" y="108" fill="#8a7f6c" class="mono" font-size="8.5" text-anchor="middle">AVANCÉS 6</text>
<!-- SECTION 1: PLACEMENTS -->
<text x="36" y="132" fill="#564a3a" class="mono" font-weight="700">PLACEMENTS · 6 OUTILS</text>
<line x1="36" y1="136" x2="644" y2="136" stroke="#e0d3b9" stroke-width="1"/>
<!-- 3 mini-cards for placements -->
<rect x="36" y="140" width="192" height="28" fill="#f3ead9" stroke="#d4c7b0" stroke-width="0.5" rx="3"/>
<rect x="46" y="150" width="8" height="8" fill="#a8d5a8" rx="1"/>
<text x="60" y="159" fill="#1a1612" class="sans" font-size="10">Intérêts composés</text>
<rect x="244" y="140" width="192" height="28" fill="#f3ead9" stroke="#d4c7b0" stroke-width="0.5" rx="3"/>
<rect x="254" y="150" width="8" height="8" fill="#88aacc" rx="1"/>
<text x="268" y="159" fill="#1a1612" class="sans" font-size="10">DCA — Investissement régulier</text>
<rect x="452" y="140" width="192" height="28" fill="#f3ead9" stroke="#d4c7b0" stroke-width="0.5" rx="3"/>
<rect x="462" y="150" width="8" height="8" fill="#e89a7a" rx="1"/>
<text x="476" y="159" fill="#1a1612" class="sans" font-size="10">Simulateur FI/RE</text>
<!-- SECTION 2: IMMOBILIER -->
<text x="36" y="192" fill="#564a3a" class="mono" font-weight="700">IMMOBILIER · 3 OUTILS</text>
<line x1="36" y1="196" x2="644" y2="196" stroke="#e0d3b9" stroke-width="1"/>
<rect x="36" y="200" width="192" height="28" fill="#f3ead9" stroke="#d4c7b0" stroke-width="0.5" rx="3"/>
<rect x="46" y="210" width="8" height="8" fill="#e8a87a" rx="1"/>
<text x="60" y="219" fill="#1a1612" class="sans" font-size="10">Acheter vs Louer</text>
<rect x="244" y="200" width="192" height="28" fill="#f3ead9" stroke="#d4c7b0" stroke-width="0.5" rx="3"/>
<rect x="254" y="210" width="8" height="8" fill="#a8c4e0" rx="1"/>
<text x="268" y="219" fill="#1a1612" class="sans" font-size="10">Prêt immobilier</text>
<rect x="452" y="200" width="192" height="28" fill="#f3ead9" stroke="#d4c7b0" stroke-width="0.5" rx="3"/>
<rect x="462" y="210" width="8" height="8" fill="#9ec3a8" rx="1"/>
<text x="476" y="219" fill="#1a1612" class="sans" font-size="10">Rentabilité locative</text>
<!-- SECTION 3: FISCALITÉ & RETRAITE -->
<text x="36" y="252" fill="#564a3a" class="mono" font-weight="700">FISCALITÉ &amp; RETRAITE · 5 OUTILS</text>
<line x1="36" y1="256" x2="644" y2="256" stroke="#e0d3b9" stroke-width="1"/>
<rect x="36" y="260" width="192" height="28" fill="#f3ead9" stroke="#d4c7b0" stroke-width="0.5" rx="3"/>
<rect x="46" y="270" width="8" height="8" fill="#d4a5a5" rx="1"/>
<text x="60" y="279" fill="#1a1612" class="sans" font-size="10">Flat Tax vs Barème</text>
<rect x="244" y="260" width="192" height="28" fill="#f3ead9" stroke="#d4c7b0" stroke-width="0.5" rx="3"/>
<rect x="254" y="270" width="8" height="8" fill="#b8a5d4" rx="1"/>
<text x="268" y="279" fill="#1a1612" class="sans" font-size="10">PEA vs CTO vs AV</text>
<rect x="452" y="260" width="192" height="28" fill="#f3ead9" stroke="#d4c7b0" stroke-width="0.5" rx="3"/>
<rect x="462" y="270" width="8" height="8" fill="#e8b27a" rx="1"/>
<text x="476" y="279" fill="#1a1612" class="sans" font-size="10">Retraite &amp; Succession</text>
<!-- SECTION 4: BUDGET & ÉPARGNE -->
<text x="36" y="312" fill="#564a3a" class="mono" font-weight="700">BUDGET &amp; ÉPARGNE · 4 OUTILS</text>
<line x1="36" y1="316" x2="644" y2="316" stroke="#e0d3b9" stroke-width="1"/>
<rect x="36" y="320" width="192" height="28" fill="#f3ead9" stroke="#d4c7b0" stroke-width="0.5" rx="3"/>
<rect x="46" y="330" width="8" height="8" fill="#9bcc4a" rx="1"/>
<text x="60" y="339" fill="#1a1612" class="sans" font-size="10">Taux d'épargne</text>
<rect x="244" y="320" width="192" height="28" fill="#f3ead9" stroke="#d4c7b0" stroke-width="0.5" rx="3"/>
<rect x="254" y="330" width="8" height="8" fill="#4ecdc4" rx="1"/>
<text x="268" y="339" fill="#1a1612" class="sans" font-size="10">Budget 50/30/20</text>
<rect x="452" y="320" width="192" height="28" fill="#f3ead9" stroke="#d4c7b0" stroke-width="0.5" rx="3"/>
<rect x="462" y="330" width="8" height="8" fill="#d966a5" rx="1"/>
<text x="476" y="339" fill="#1a1612" class="sans" font-size="10">Épargne urgence</text>
<!-- SECTION 5: OUTILS AVANCÉS -->
<text x="36" y="372" fill="#564a3a" class="mono" font-weight="700">OUTILS AVANCÉS · 6 OUTILS</text>
<line x1="36" y1="376" x2="644" y2="376" stroke="#e0d3b9" stroke-width="1"/>
<rect x="36" y="380" width="192" height="28" fill="#f3ead9" stroke="#d4c7b0" stroke-width="0.5" rx="3"/>
<rect x="46" y="390" width="8" height="8" fill="#b594d4" rx="1"/>
<text x="60" y="399" fill="#1a1612" class="sans" font-size="10">Impact des frais TER</text>
<rect x="244" y="380" width="192" height="28" fill="#f3ead9" stroke="#d4c7b0" stroke-width="0.5" rx="3"/>
<rect x="254" y="390" width="8" height="8" fill="#88aacc" rx="1"/>
<text x="268" y="399" fill="#1a1612" class="sans" font-size="10">Inflation &amp; Pouvoir d'achat</text>
<rect x="452" y="380" width="192" height="28" fill="#f3ead9" stroke="#d4c7b0" stroke-width="0.5" rx="3"/>
<rect x="462" y="390" width="8" height="8" fill="#5fa67a" rx="1"/>
<text x="476" y="399" fill="#1a1612" class="sans" font-size="10">SCPI &amp; Viager</text>
<!-- Frame bottom -->
<line x1="32" y1="534" x2="648" y2="534" stroke="#c87a4d" stroke-width="0.5" opacity="0.7"/>
<text x="32" y="548" fill="#a3623a" class="mono" opacity="0.9">ACCÈS RAPIDES · MIS À JOUR EN TEMPS RÉEL</text>
<text x="648" y="548" fill="#a3623a" class="mono" text-anchor="end" opacity="0.9">24 MODULES · 5 CATÉGORIES</text>
</svg>
