<svg xmlns="http://www.w3.org/2000/svg" viewBox="0 68 680 414">
<style>
.mono{font-family:ui-monospace,SFMono-Regular,monospace;font-size:10px;letter-spacing:0.1em}
.srf{font-family:Georgia,serif}
.sans{font-family:-apple-system,system-ui,sans-serif}
</style>
<rect width="680" height="510" fill="#F5F0E8"/>

<!-- Vertical divider -->
<line x1="340" y1="78" x2="340" y2="458" stroke="#C8BCAA" stroke-width="1"/>

<!-- LEFT: Allocation donut (cx=186, cy=260, r=70, sw=20) circ=439.82 -->
<text x="32" y="92" fill="#6B5E4E" class="mono">ALLOCATION ACTUELLE</text>

<circle cx="186" cy="270" r="70" fill="none" stroke="#DDD4C4" stroke-width="20"/>
<circle cx="186" cy="270" r="70" fill="none" stroke="#B07820" stroke-width="20" stroke-dasharray="165 275" transform="rotate(-90 186 270)"/>
<circle cx="186" cy="270" r="70" fill="none" stroke="#9A7840" stroke-width="20" stroke-dasharray="104 336" transform="rotate(46.8 186 270)"/>
<circle cx="186" cy="270" r="70" fill="none" stroke="#7A6040" stroke-width="20" stroke-dasharray="86 354" transform="rotate(133.2 186 270)"/>
<circle cx="186" cy="270" r="70" fill="none" stroke="#C0B4A0" stroke-width="20" stroke-dasharray="77 363" transform="rotate(205.2 186 270)"/>

<text x="186" y="265" fill="#B07820" class="srf" font-size="22" text-anchor="middle">486 250</text>
<text x="186" y="280" fill="#7A7468" class="mono" font-size="8" text-anchor="middle">EUROS NETS</text>

<!-- Legend -->
<rect x="32" y="358" width="10" height="10" fill="#B07820"/>
<text x="48" y="368" fill="#6B5E4E" class="mono">PEA — 184 200 € — 38 %</text>
<rect x="32" y="374" width="10" height="10" fill="#9A7840"/>
<text x="48" y="384" fill="#6B5E4E" class="mono">AV — 116 700 € — 24 %</text>
<rect x="32" y="390" width="10" height="10" fill="#7A6040"/>
<text x="48" y="400" fill="#6B5E4E" class="mono">SCPI — 97 250 € — 20 %</text>
<rect x="32" y="406" width="10" height="10" fill="#C0B4A0"/>
<text x="48" y="416" fill="#6B5E4E" class="mono">CASH — 88 100 € — 18 %</text>

<rect x="32" y="428" width="280" height="24" rx="3" fill="#EDE8DF"/>
<text x="44" y="444" fill="#7A7468" class="mono">SCORE 72 / 100 · TMI 30 % · 38 ANS</text>

<!-- RIGHT: TER Optimization -->
<text x="356" y="92" fill="#6B5E4E" class="mono">OPTIMISATION DES FRAIS</text>

<text x="356" y="112" fill="#7A7468" class="mono">ETF</text>
<text x="476" y="112" fill="#7A7468" class="mono">TER ACT.</text>
<text x="548" y="112" fill="#7A7468" class="mono">TER OPT.</text>
<line x1="356" y1="117" x2="636" y2="117" stroke="#C8BCAA" stroke-width="1"/>

<text x="356" y="132" fill="#6B5E4E" class="mono">World</text>
<text x="476" y="132" fill="#B84030" class="mono">0,50 %</text>
<text x="548" y="132" fill="#4A7C5C" class="mono">0,20 %</text>

<text x="356" y="148" fill="#6B5E4E" class="mono">S&amp;P 500</text>
<text x="476" y="148" fill="#B84030" class="mono">0,40 %</text>
<text x="548" y="148" fill="#4A7C5C" class="mono">0,15 %</text>

<text x="356" y="164" fill="#6B5E4E" class="mono">Émergents</text>
<text x="476" y="164" fill="#6B5E4E" class="mono">0,18 %</text>
<text x="548" y="164" fill="#4A7C5C" class="mono">0,18 %</text>

<text x="356" y="180" fill="#6B5E4E" class="mono">Obligations</text>
<text x="476" y="180" fill="#B84030" class="mono">0,35 %</text>
<text x="548" y="180" fill="#4A7C5C" class="mono">0,10 %</text>

<line x1="356" y1="185" x2="636" y2="185" stroke="#C8BCAA" stroke-width="1"/>

<text x="356" y="202" fill="#7A7468" class="mono">TER MOYEN ACTUEL</text>
<text x="356" y="218" fill="#B84030" class="srf" font-size="18">0,39 %</text>
<text x="356" y="238" fill="#7A7468" class="mono">TER MOYEN OPTIMISÉ</text>
<text x="356" y="254" fill="#4A7C5C" class="srf" font-size="18">0,16 %</text>

<line x1="356" y1="268" x2="636" y2="268" stroke="#C8BCAA" stroke-width="1"/>

<text x="356" y="290" fill="#7A7468" class="mono">ÉCONOMIE POTENTIELLE SUR 20 ANS</text>
<text x="356" y="320" fill="#B07820" class="srf" font-size="36">8 240 €</text>
<text x="356" y="338" fill="#7A7468" class="mono">AVEC HYPOTHÈSE +7 % / AN</text>

<line x1="356" y1="355" x2="636" y2="355" stroke="#C8BCAA" stroke-width="1"/>

<text x="356" y="374" fill="#7A7468" class="mono">RATIO CRYPTO / PATRIMOINE</text>
<text x="356" y="390" fill="#4A7C5C" class="srf" font-size="16">0 %  ·  Aucune exposition</text>

<text x="356" y="412" fill="#7A7468" class="mono">TAUX D'ENDETTEMENT LTV</text>
<text x="356" y="428" fill="#4A7C5C" class="srf" font-size="16">24 %  ·  Bien financé</text>

<rect x="356" y="442" width="280" height="10" rx="2" fill="#DDD4C4"/>
<rect x="356" y="442" width="67" height="10" rx="2" fill="#4A7C5C"/>
<text x="356" y="464" fill="#7A7468" class="mono">SCORE DETTE 14 / 20</text>
</svg>
