<svg width="100%" viewBox="0 0 680 480" role="img" xmlns="http://www.w3.org/2000/svg">
<title>Planche Patrimo — Accès immédiat</title>
<desc>Patrimo — accès immédiat, 100 % gratuit, zéro donnée bancaire. Évolution patrimoniale sur 12 mois.</desc>
<defs>
<style>
.mono{font-family:ui-monospace,SFMono-Regular,monospace;font-size:10px;letter-spacing:0.1em}
.srf{font-family:Georgia,"Tiempos Headline",serif}
.sans{font-family:-apple-system,system-ui,sans-serif}
</style>
</defs>
<rect width="680" height="480" fill="#ece2cf"/>
<!-- Frame top -->
<line x1="32" y1="34" x2="648" y2="34" stroke="#c87a4d" stroke-width="0.5" opacity="0.7"/>
<text x="32" y="24" fill="#a3623a" class="mono" opacity="0.9">PATRIMO · PTM-09 · 2026</text>
<text x="648" y="24" fill="#a3623a" class="mono" text-anchor="end" opacity="0.9">FIG. 09 — PLANCHE 008 / 008</text>
<!-- Section label -->
<text x="32" y="74" fill="#8a7f6c" class="mono">VIII. — ENTRÉE · ACCÈS IMMÉDIAT</text>
<!-- Giant wordmark: Patrimo -->
<text x="340" y="210" fill="#c87a4d" class="srf" font-size="110" font-style="italic" text-anchor="middle">Patrimo</text>
<!-- Subtitle line -->
<text x="340" y="244" fill="#8a7f6c" class="mono" text-anchor="middle">GRATUIT · ZÉRO DONNÉE BANCAIRE · ACCÈS IMMÉDIAT</text>
<!-- Sparkline (full width: x=32 to x=648, y range ~290–350) -->
<!-- Area fill -->
<polygon points="32,340 96,330 160,335 224,320 288,327 352,312 416,318 480,326 544,332 616,320 648,315 648,370 32,370" fill="#c87a4d" opacity="0.10"/>
<!-- Line -->
<polyline points="32,340 96,330 160,335 224,320 288,327 352,312 416,318 480,326 544,332 616,320 648,315" fill="none" stroke="#c87a4d" stroke-width="1.5"/>
<!-- Start point -->
<circle cx="32" cy="340" r="3" fill="#c87a4d"/>
<!-- End point -->
<circle cx="648" cy="315" r="3" fill="#c87a4d"/>
<!-- Grid lines -->
<line x1="32" y1="310" x2="648" y2="310" stroke="#d4c7b0" stroke-width="0.5" stroke-dasharray="3 6" opacity="0.5"/>
<line x1="32" y1="350" x2="648" y2="350" stroke="#d4c7b0" stroke-width="0.5" stroke-dasharray="3 6" opacity="0.5"/>
<!-- Month labels -->
<text x="32" y="380" fill="#8a7f6c" class="mono" font-size="8">M</text>
<text x="96" y="380" fill="#8a7f6c" class="mono" font-size="8">J</text>
<text x="160" y="380" fill="#8a7f6c" class="mono" font-size="8">J</text>
<text x="224" y="380" fill="#8a7f6c" class="mono" font-size="8">A</text>
<text x="288" y="380" fill="#8a7f6c" class="mono" font-size="8">S</text>
<text x="352" y="380" fill="#8a7f6c" class="mono" font-size="8">O</text>
<text x="416" y="380" fill="#8a7f6c" class="mono" font-size="8">N</text>
<text x="480" y="380" fill="#8a7f6c" class="mono" font-size="8">D</text>
<text x="544" y="380" fill="#8a7f6c" class="mono" font-size="8">J</text>
<text x="616" y="380" fill="#8a7f6c" class="mono" font-size="8">M</text>
<!-- Sparkline labels -->
<text x="32" y="398" fill="#8a7f6c" class="mono">MAI 2025</text>
<text x="648" y="398" fill="#c87a4d" class="mono" text-anchor="end">MAI 2026</text>
<!-- Frame bottom -->
<line x1="32" y1="454" x2="648" y2="454" stroke="#c87a4d" stroke-width="0.5" opacity="0.7"/>
<text x="32" y="468" fill="#a3623a" class="mono" opacity="0.9">PATRIMO · 2026</text>
<text x="648" y="468" fill="#a3623a" class="mono" text-anchor="end" opacity="0.9">008 / FIN</text>
</svg>
